<svg id="a255597f-200c-4717-aaee-7b080cf20479" data-name="Layer 1" xmlns="http://www.w3.org/2000/svg" viewBox="0 0 227.17 133.83"><path d="M97.36,4l4-.53a385.59,385.59,0,0,1,102.93,0l4,.53c8.12,1.09,14.65,8.33,16,17.76l.49,3.39a241.09,241.09,0,0,1,0,69.74l-.51,3.51c-1.37,9.37-7.84,16.59-15.9,17.74h0a386,386,0,0,1-103.26.78l-7.65-1c-8.16-1-14.74-8.29-16.13-17.77l-.48-3.29a241.09,241.09,0,0,1,0-69.74l.49-3.39C82.71,12.31,89.24,5.07,97.36,4Z" transform="translate(-0.13)" fill="#ed1c24"/><text transform="translate(0 99.51)" font-size="110" fill="#171717" font-family="DINCondensed-Bold, DIN Condensed" font-weight="700"><tspan letter-spacing="-0.05em">Y</tspan><tspan x="36.63" y="0">o</tspan></text><text transform="translate(89.53 99.18)" font-size="110" fill="#fff" font-family="DINCondensed-Bold, DIN Condensed" font-weight="700">han</text></svg>